<?xml version="1.0" standalone="no"?>
<!DOCTYPE svg PUBLIC "-//W3C//DTD SVG 20010904//EN"
 "http://www.w3.org/TR/2001/REC-SVG-20010904/DTD/svg10.dtd">
<svg version="1.0" xmlns="http://www.w3.org/2000/svg"
 width="2000.000000pt" height="1104.000000pt" viewBox="0 0 2000.000000 1104.000000"
 preserveAspectRatio="xMidYMid meet">

<g transform="translate(0.000000,1104.000000) scale(0.100000,-0.100000)"
fill="#000000" stroke="none">
<path d="M9605 11019 c-1587 -65 -3099 -490 -4475 -1257 -132 -74 -366 -213
-465 -277 -677 -435 -1181 -840 -1725 -1385 -965 -964 -1685 -2050 -2204
-3321 -316 -775 -549 -1682 -650 -2529 -58 -479 -73 -825 -75 -1649 l-1 -604
8457 7 c4652 3 9145 9 9986 12 l1527 7 0 561 c0 766 -23 1268 -75 1666 -160
1220 -473 2253 -995 3285 -490 970 -1088 1794 -1859 2565 -545 545 -1056 955
-1726 1385 -121 78 -304 186 -485 287 -1302 727 -2767 1151 -4280 1238 -253
15 -712 19 -955 9z m205 -253 c0 -112 3 -211 6 -220 18 -47 24 5 24 204 l0
220 70 0 70 0 0 -470 c0 -411 2 -470 15 -470 13 0 15 59 15 470 l0 470 70 0
70 0 0 -221 c0 -172 3 -220 13 -217 9 4 13 59 15 221 l2 217 53 0 c99 0 98 1
92 -104 -16 -296 -16 -346 0 -346 11 0 15 13 16 53 1 28 5 126 8 217 l6 165
74 3 74 3 -6 -93 c-19 -277 -20 -361 -6 -356 11 4 17 50 26 209 6 112 12 211
12 219 1 12 14 14 71 12 l70 -4 -1 -41 c0 -23 -6 -121 -13 -217 -12 -154 -9
-207 9 -189 4 5 35 372 35 422 0 14 10 17 59 17 33 0 65 -2 73 -5 11 -5 7 -86
-27 -471 -36 -413 -39 -491 -18 -471 5 6 83 855 83 911 l0 28 73 -7 c39 -4 73
-8 74 -9 1 -1 -9 -98 -21 -216 -17 -155 -20 -217 -12 -222 16 -10 16 -9 40
220 l22 207 68 -2 c37 0 70 -3 72 -6 3 -2 -7 -94 -21 -204 -29 -232 -29 -233
-12 -233 10 0 20 54 38 206 13 113 27 210 30 216 4 7 30 8 73 3 52 -5 66 -10
66 -23 0 -9 -14 -107 -30 -217 -18 -123 -25 -204 -20 -209 5 -5 12 -8 14 -5 2
2 18 100 35 218 17 118 33 216 35 218 5 6 113 -9 126 -17 10 -6 6 -51 -19
-207 -34 -218 -36 -233 -21 -233 14 0 14 -1 50 231 l32 205 62 -9 c33 -5 65
-13 70 -17 7 -7 -125 -802 -151 -907 -4 -16 -1 -23 10 -23 19 0 10 -42 103
490 42 239 77 436 77 436 8 7 130 -22 134 -31 3 -10 -53 -327 -74 -412 -4 -16
-1 -23 10 -23 11 0 24 50 56 212 23 117 44 214 47 217 5 5 124 -16 132 -24 3
-2 -15 -100 -40 -217 -39 -185 -44 -237 -21 -215 3 4 26 100 50 214 25 114 46
209 48 211 7 7 128 -23 131 -33 3 -6 -16 -99 -41 -207 -48 -210 -51 -232 -33
-226 6 2 33 98 60 213 26 114 50 210 52 212 6 7 126 -19 131 -28 3 -4 -18
-101 -46 -214 -38 -151 -49 -209 -41 -217 14 -14 11 -25 71 215 27 109 51 201
54 204 6 5 109 -16 126 -26 7 -5 -30 -159 -109 -455 -66 -246 -120 -452 -120
-457 0 -5 6 -9 13 -9 8 0 55 160 131 448 65 246 122 450 125 454 9 10 136 -27
135 -38 -1 -5 -28 -100 -59 -212 -53 -184 -61 -233 -36 -206 5 5 35 99 66 209
32 110 59 202 61 204 6 7 134 -32 134 -42 0 -5 -27 -97 -60 -204 -62 -203 -68
-227 -48 -221 6 2 39 95 73 206 34 111 65 205 68 208 6 6 126 -25 131 -35 2
-3 -27 -99 -64 -213 -37 -114 -65 -210 -62 -213 15 -15 27 12 88 203 37 114
68 209 70 211 5 5 134 -40 134 -48 0 -4 -31 -98 -70 -210 -38 -111 -70 -204
-70 -207 0 -2 6 -4 14 -4 8 0 20 17 27 38 6 20 38 114 71 208 l59 171 69 -25
69 -24 -18 -47 c-10 -25 -82 -223 -161 -439 -107 -292 -140 -396 -132 -404 8
-8 13 -8 16 3 3 8 76 208 162 444 85 237 157 431 158 432 1 2 32 -9 68 -23
l67 -25 -14 -37 c-11 -32 -121 -318 -140 -363 -4 -10 0 -19 8 -22 10 -4 34 47
92 199 45 117 83 204 91 204 27 0 125 -44 121 -54 -3 -6 -40 -98 -82 -204 -56
-140 -75 -196 -67 -204 8 -8 14 -5 20 13 25 64 155 384 158 388 4 4 115 -38
126 -48 4 -4 -31 -96 -77 -206 -57 -132 -82 -202 -75 -209 5 -5 11 -8 13 -5 2
2 41 93 87 202 46 108 89 197 95 197 7 0 38 -11 68 -25 l56 -26 -14 -32 c-7
-18 -48 -108 -89 -201 -42 -94 -76 -172 -76 -174 0 -2 7 -2 16 0 9 2 49 79
101 196 61 137 90 192 102 192 9 -1 39 -13 67 -28 l51 -27 -198 -425 c-130
-276 -195 -428 -189 -434 5 -5 11 -8 13 -5 2 2 91 191 197 419 106 228 196
419 201 424 10 11 129 -42 129 -56 0 -4 -43 -94 -96 -200 -72 -144 -92 -193
-83 -199 10 -6 39 45 111 192 l97 199 65 -32 65 -32 -99 -195 c-60 -120 -95
-200 -90 -205 6 -5 11 -8 14 -5 2 2 47 91 100 197 53 105 98 192 101 192 10 0
125 -60 125 -65 0 -3 -46 -91 -101 -196 -70 -130 -99 -193 -92 -200 7 -7 43
51 113 183 57 106 104 195 106 196 4 6 124 -60 124 -67 0 -3 -47 -91 -104
-196 -72 -129 -101 -192 -93 -197 6 -4 12 -6 13 -5 0 1 38 70 84 152 45 83 93
169 106 192 l24 42 60 -32 c33 -18 60 -36 60 -41 0 -4 -104 -188 -231 -408
-152 -264 -228 -403 -221 -410 11 -11 19 3 292 477 95 165 178 306 185 313 9
11 22 7 68 -20 31 -18 57 -36 57 -40 0 -4 -47 -85 -105 -181 -117 -195 -123
-207 -104 -207 8 0 63 84 124 185 60 102 113 185 118 185 4 0 33 -16 63 -35
l55 -36 -23 -37 c-12 -20 -64 -104 -116 -186 -64 -103 -90 -152 -83 -159 6 -6
12 -9 14 -6 2 2 52 83 112 179 59 96 112 179 116 184 4 4 35 -8 68 -28 l61
-37 -24 -37 c-13 -20 -67 -104 -120 -186 -65 -100 -94 -152 -87 -159 6 -6 50
52 132 177 l122 187 26 -17 c14 -10 41 -27 58 -38 18 -12 31 -26 29 -33 -3 -6
-57 -89 -122 -183 -78 -115 -113 -175 -106 -182 6 -6 48 47 127 164 65 95 122
177 126 182 12 13 122 -62 115 -79 -2 -7 -122 -181 -266 -386 -175 -250 -257
-376 -250 -383 5 -5 11 -8 13 -5 2 2 122 174 267 382 145 207 268 377 273 377
13 0 107 -70 107 -80 0 -4 -57 -85 -126 -180 -88 -121 -122 -176 -115 -183 6
-6 12 -9 14 -6 2 2 59 81 126 174 67 94 126 171 131 173 11 4 110 -69 110 -81
0 -4 -59 -85 -130 -179 -89 -116 -127 -174 -119 -179 12 -7 35 20 193 231 44
58 81 107 82 109 4 5 114 -78 114 -85 0 -3 -57 -79 -126 -167 -70 -89 -131
-167 -136 -173 -5 -7 -3 -14 5 -17 8 -3 62 57 146 164 73 93 136 169 140 169
5 0 32 -19 60 -41 46 -37 50 -43 38 -58 -7 -9 -71 -86 -140 -172 -113 -140
-131 -169 -107 -169 4 0 69 76 145 170 l137 170 49 -41 c27 -22 51 -44 54 -49
3 -4 -130 -169 -296 -365 -205 -245 -297 -361 -290 -368 6 -6 12 -9 14 -6 29
35 591 706 596 712 4 4 31 -15 61 -41 l54 -49 -129 -149 c-165 -189 -160 -183
-149 -194 6 -6 65 55 152 155 79 91 146 165 150 165 4 0 29 -20 57 -44 l49
-43 -26 -32 c-15 -17 -79 -89 -142 -159 -63 -70 -115 -131 -116 -137 -5 -32
33 2 160 144 158 177 147 171 214 102 l39 -40 -147 -156 c-128 -137 -165 -185
-131 -173 5 2 74 72 153 156 l144 152 26 -19 c15 -11 39 -32 54 -48 l27 -28
-154 -160 c-102 -106 -150 -163 -143 -170 6 -7 61 44 163 150 l154 160 50 -50
51 -50 -331 -331 c-218 -218 -329 -336 -324 -344 5 -8 118 99 341 321 l334
334 52 -53 53 -53 -159 -153 c-104 -99 -157 -156 -152 -164 5 -8 61 38 169
142 l162 155 38 -37 c68 -66 73 -55 -98 -216 -85 -80 -156 -149 -156 -153 -2
-26 36 3 175 133 l157 147 41 -39 c68 -66 72 -56 -93 -204 -169 -151 -173
-155 -164 -170 4 -6 64 42 142 112 74 68 149 134 166 147 l30 25 43 -50 c24
-27 44 -52 44 -56 0 -3 -74 -71 -165 -149 -101 -88 -161 -147 -156 -152 11
-11 21 -4 207 158 l137 119 49 -54 c26 -30 45 -57 41 -60 -5 -4 -163 -137
-353 -295 -190 -159 -349 -292 -354 -297 -6 -5 -6 -12 0 -18 7 -7 127 87 368
290 197 165 362 298 366 295 5 -3 27 -27 49 -54 l41 -49 -170 -137 c-94 -75
-170 -140 -170 -144 0 -4 3 -10 6 -14 5 -5 208 153 335 260 15 12 21 8 58 -38
22 -28 41 -55 41 -60 0 -5 -77 -68 -170 -141 -110 -85 -167 -135 -161 -141 7
-7 15 -7 23 0 7 5 84 64 170 131 86 67 159 122 162 122 13 0 89 -112 79 -118
-5 -4 -85 -63 -176 -131 -105 -79 -163 -129 -160 -137 6 -17 -3 -23 191 124
89 67 165 122 170 122 9 0 82 -95 82 -107 0 -6 -295 -225 -343 -255 -8 -5 -9
-10 -1 -18 7 -7 61 27 183 115 95 69 177 125 181 125 12 0 82 -98 78 -109 -1
-5 -172 -128 -378 -272 -206 -144 -377 -263 -379 -266 -3 -2 0 -8 5 -13 6 -6
142 83 388 255 209 146 383 265 387 265 15 0 83 -110 73 -119 -5 -5 -58 -41
-119 -81 -190 -126 -237 -162 -227 -172 7 -7 70 31 180 106 93 64 176 118 183
121 8 3 23 -9 35 -28 11 -17 28 -44 38 -58 l16 -26 -182 -118 c-101 -66 -185
-120 -187 -122 -3 -2 0 -8 6 -14 7 -7 64 25 188 106 97 63 181 117 186 118 10
2 85 -110 78 -117 -2 -2 -85 -55 -184 -116 -99 -62 -182 -114 -184 -116 -3 -3
0 -9 5 -14 6 -6 74 30 194 105 101 63 187 115 190 115 7 -1 70 -106 70 -117 0
-4 -84 -57 -185 -118 -102 -60 -185 -113 -185 -117 0 -22 34 -6 199 92 100 61
186 110 189 110 4 0 22 -26 40 -57 27 -46 31 -59 20 -68 -7 -7 -179 -108 -383
-225 -446 -256 -420 -239 -407 -252 6 -6 143 67 403 218 216 125 400 229 408
231 11 2 26 -16 48 -56 l32 -60 -97 -55 c-53 -29 -141 -78 -194 -108 -64 -35
-94 -58 -90 -66 5 -8 67 21 196 93 104 58 192 105 196 105 8 0 74 -120 68
-124 -1 -2 -57 -31 -123 -66 -235 -124 -267 -142 -256 -153 6 -6 73 24 200 92
104 55 192 101 195 101 7 0 69 -121 64 -125 -2 -2 -88 -47 -193 -101 -220
-113 -199 -100 -191 -113 4 -7 83 28 205 88 l198 99 31 -64 32 -65 -200 -97
c-141 -68 -197 -101 -192 -109 6 -9 61 14 201 82 106 52 196 95 200 95 14 0
65 -120 55 -129 -5 -4 -191 -92 -414 -196 -478 -222 -431 -198 -422 -212 5 -9
135 47 432 186 l425 199 27 -52 c15 -28 27 -58 28 -67 0 -11 -59 -42 -199
-104 -134 -60 -197 -93 -194 -102 6 -14 -6 -19 208 77 77 34 155 69 173 76
l32 14 25 -56 c14 -31 25 -62 25 -68 0 -7 -90 -50 -200 -96 -110 -47 -200 -88
-200 -92 0 -21 34 -10 215 68 109 46 201 81 205 77 10 -12 53 -123 49 -127 -2
-1 -92 -38 -199 -81 -107 -43 -199 -81 -204 -86 -6 -5 -3 -11 5 -14 8 -3 96
28 196 69 100 41 190 77 201 80 16 5 23 -3 41 -50 11 -31 21 -61 21 -68 0 -8
-87 -46 -204 -91 -145 -54 -203 -81 -199 -90 4 -11 11 -11 41 0 32 11 318 121
363 140 13 5 22 -8 43 -61 14 -37 25 -68 23 -69 -1 -1 -198 -73 -437 -160
-239 -87 -439 -162 -444 -166 -37 -33 76 1 454 140 239 87 436 158 437 157 1
0 13 -31 26 -67 l25 -67 -209 -72 c-137 -47 -209 -77 -209 -86 0 -8 1 -14 3
-14 2 0 94 31 206 70 111 38 206 70 211 70 8 0 55 -129 49 -133 -2 -2 -96 -33
-209 -69 -112 -37 -206 -72 -208 -77 -7 -20 33 -11 227 54 107 35 197 62 201
60 10 -6 44 -124 37 -131 -3 -3 -95 -33 -204 -66 -109 -33 -202 -64 -207 -69
-28 -26 24 -16 207 39 112 34 208 62 214 62 8 0 43 -103 43 -128 0 -4 -94 -34
-210 -67 -129 -37 -210 -65 -210 -72 0 -7 3 -13 8 -13 4 0 93 24 197 54 105
30 199 56 209 58 15 2 22 -9 37 -61 10 -36 17 -67 14 -69 -2 -2 -203 -55 -446
-118 -243 -63 -443 -115 -445 -117 -2 -1 0 -7 4 -13 5 -8 153 26 451 103 316
82 446 111 451 103 11 -18 33 -121 27 -127 -3 -3 -95 -27 -204 -54 -237 -59
-229 -57 -216 -70 7 -7 76 7 213 41 112 28 208 49 215 46 12 -4 42 -122 33
-131 -2 -2 -94 -25 -204 -50 -237 -54 -231 -52 -217 -66 8 -8 70 3 212 36 111
26 207 45 214 42 11 -4 43 -125 35 -132 -2 -1 -97 -22 -212 -47 -117 -25 -211
-49 -214 -56 -6 -18 16 -15 233 31 227 49 209 53 221 -47 l6 -53 -212 -41
c-117 -22 -215 -43 -218 -47 -23 -22 40 -17 226 20 210 41 213 41 217 21 8
-34 24 -121 22 -122 -1 -1 -208 -37 -460 -82 -252 -44 -461 -83 -465 -86 -24
-25 66 -13 448 55 239 43 447 78 461 78 24 1 26 -3 35 -65 6 -36 8 -67 5 -69
-4 -2 -98 -18 -211 -36 -194 -30 -232 -40 -217 -55 3 -4 101 8 218 26 171 27
212 31 219 20 9 -14 24 -119 18 -125 -2 -2 -99 -17 -217 -34 -118 -17 -216
-32 -217 -34 -2 -1 0 -8 4 -14 5 -7 64 -2 202 18 107 16 205 29 217 29 19 0
22 -7 28 -65 4 -36 5 -68 2 -71 -2 -3 -100 -17 -216 -31 -155 -20 -211 -30
-211 -40 0 -16 -25 -18 222 13 115 14 212 23 214 21 3 -2 7 -34 11 -70 7 -79
28 -69 -207 -92 -214 -20 -230 -23 -224 -38 3 -10 51 -8 221 10 119 13 218 22
219 20 2 -2 5 -34 6 -72 l3 -70 -462 -40 c-254 -22 -465 -44 -469 -48 -4 -4
-4 -10 0 -14 3 -4 214 11 469 34 332 29 464 37 469 29 4 -6 8 -39 8 -73 l0
-63 -32 0 c-69 -1 -399 -28 -405 -33 -18 -19 24 -21 169 -10 90 6 189 12 220
12 l56 1 4 -69 3 -69 -100 -6 c-320 -19 -338 -21 -343 -35 -4 -12 13 -13 99
-8 57 4 159 10 227 13 l122 7 0 -70 0 -70 -46 -7 c-26 -3 -95 -6 -153 -6 -152
0 -241 -10 -241 -26 0 -10 14 -13 58 -9 31 2 130 7 219 10 l163 5 5 -23 c4
-13 5 -46 3 -73 l-3 -49 -217 -3 c-192 -2 -218 -4 -218 -18 0 -14 24 -16 220
-13 l220 4 0 -72 0 -73 -470 0 c-411 0 -470 -2 -470 -15 0 -13 59 -15 470 -15
l470 0 0 -474 0 -474 -842 -6 c-464 -3 -4004 -13 -7868 -21 -3864 -8 -7951
-18 -9082 -22 l-2058 -6 0 501 0 502 470 0 c411 0 470 2 470 15 0 13 -59 15
-470 15 l-471 0 3 72 3 72 217 -3 c193 -2 218 -1 218 13 0 14 -28 16 -217 18
l-218 3 0 67 c0 36 2 69 5 72 3 3 100 2 215 -3 189 -7 241 -3 223 15 -3 3 -75
8 -160 10 -84 3 -181 7 -216 10 l-62 6 0 70 0 71 123 -7 c67 -3 169 -9 226
-13 86 -5 103 -4 99 8 -5 14 -23 16 -343 35 l-100 6 3 69 4 69 56 -1 c31 0
130 -6 220 -12 145 -11 187 -9 169 10 -6 5 -336 32 -404 33 l-33 0 0 63 c0 34
4 67 8 73 5 8 136 0 469 -29 255 -22 466 -38 470 -34 3 4 3 10 -1 14 -4 4
-215 26 -469 48 l-462 40 3 70 c2 39 5 71 6 73 2 1 100 -8 219 -21 170 -18
218 -20 221 -10 6 15 -11 18 -224 38 -235 23 -214 14 -207 92 4 36 8 68 11 70
2 2 98 -7 213 -21 244 -30 223 -29 223 -13 0 10 -56 20 -211 40 -116 14 -214
28 -216 31 -3 3 -2 35 2 71 6 58 9 65 28 65 12 0 110 -13 217 -29 138 -20 197
-25 202 -18 4 6 6 13 4 14 -1 2 -99 17 -217 34 -118 17 -215 32 -217 33 -5 6
11 114 19 127 6 10 49 6 219 -20 116 -19 213 -31 217 -27 15 15 -23 25 -217
56 -113 17 -208 34 -211 35 -3 2 -1 33 5 69 9 62 11 66 35 66 14 -1 223 -36
464 -79 381 -67 467 -78 444 -54 -3 2 -212 41 -464 85 -252 45 -459 81 -460
82 -2 1 14 88 22 122 4 20 7 20 217 -21 186 -37 249 -42 226 -20 -3 4 -101 24
-217 47 l-211 41 1 26 c0 14 6 47 12 72 l12 45 200 -43 c217 -46 239 -49 233
-31 -3 7 -97 31 -214 56 -115 25 -210 46 -212 47 -8 7 24 128 35 132 6 3 104
-17 217 -43 187 -43 237 -49 210 -25 -5 4 -101 29 -213 55 -113 25 -207 48
-209 51 -9 9 21 127 33 131 7 3 103 -18 215 -46 137 -34 206 -48 213 -41 13
13 21 11 -216 70 -109 27 -201 51 -204 54 -5 6 16 109 27 127 5 8 135 -23 436
-104 535 -143 484 -131 484 -114 0 10 -127 48 -445 133 -244 65 -449 121 -455
125 -6 4 -3 29 9 70 15 53 22 64 37 62 10 -2 104 -28 209 -58 104 -30 193 -54
197 -54 5 0 8 6 8 13 0 7 -80 35 -210 71 -116 33 -210 63 -210 68 0 25 35 128
43 128 6 0 102 -28 214 -62 183 -55 235 -65 207 -39 -5 5 -98 36 -207 69 -109
33 -201 63 -204 66 -7 7 27 125 37 131 4 2 94 -25 201 -60 194 -65 234 -74
227 -54 -2 5 -96 40 -208 77 -113 36 -207 67 -209 69 -6 4 41 133 49 133 5 0
100 -31 211 -70 112 -38 204 -70 206 -70 2 0 3 6 3 14 0 9 -72 39 -209 86
l-210 72 25 66 c13 36 26 67 27 68 1 1 198 -70 437 -157 382 -139 489 -172
454 -140 -5 5 -205 80 -444 166 -239 87 -436 159 -437 160 -2 1 9 32 23 69 21
53 30 66 43 61 9 -4 93 -36 186 -72 94 -36 180 -69 192 -74 15 -5 23 -4 26 5
4 10 -47 34 -171 81 -97 37 -191 73 -209 81 l-32 13 25 63 c14 35 27 64 29 66
2 2 92 -33 201 -78 109 -44 205 -78 213 -75 8 3 11 9 5 14 -5 5 -97 43 -204
86 -107 43 -197 80 -199 81 -4 4 39 115 49 127 3 4 96 -31 205 -77 181 -78
215 -89 215 -68 0 4 -90 45 -200 92 -110 46 -200 89 -200 96 0 6 11 37 25 68
l25 56 32 -14 c18 -7 96 -42 173 -76 214 -96 202 -91 208 -77 3 9 -60 42 -194
102 -140 62 -199 93 -199 104 1 9 13 39 28 67 l27 51 425 -197 c289 -135 427
-195 432 -187 9 14 57 -10 -422 212 -223 104 -409 192 -414 197 -10 8 41 128
55 128 4 0 94 -43 200 -95 140 -68 195 -91 201 -82 5 8 -51 41 -192 109 l-200
97 32 65 31 64 198 -99 c122 -60 201 -95 205 -88 3 6 4 12 3 13 -2 2 -89 46
-193 100 -105 53 -192 98 -194 100 -4 5 57 126 64 126 3 0 91 -46 195 -101
127 -68 194 -98 200 -92 11 11 -21 29 -256 153 -66 35 -122 64 -123 66 -6 4
60 124 68 124 4 0 59 -28 121 -63 255 -142 267 -148 272 -134 3 9 -31 33 -102
72 -58 32 -145 80 -193 107 l-87 49 32 60 c22 40 37 58 47 56 9 -2 193 -106
409 -231 237 -137 397 -224 403 -218 5 5 4 13 -4 19 -7 5 -184 108 -393 228
-209 120 -386 223 -393 230 -11 9 -7 22 20 68 18 31 36 57 40 57 3 0 89 -49
189 -110 165 -98 199 -114 199 -92 0 4 -83 57 -185 117 -101 61 -185 113 -185
117 0 9 64 118 70 118 3 0 89 -52 190 -115 120 -75 188 -111 194 -105 5 5 8
11 5 14 -2 2 -85 54 -184 116 -99 61 -182 114 -184 116 -7 7 68 119 78 117 5
-2 90 -55 187 -118 123 -81 180 -113 187 -106 6 6 9 12 6 14 -2 2 -86 56 -187
122 l-182 118 16 26 c10 14 27 41 38 58 12 19 27 31 35 28 7 -3 90 -57 183
-121 110 -75 173 -113 180 -106 10 10 -37 46 -227 172 -60 40 -114 76 -119 81
-10 9 58 119 73 119 4 0 178 -119 387 -265 246 -172 382 -261 388 -255 5 5 8
11 5 13 -2 3 -173 122 -379 266 -206 144 -377 267 -378 272 -4 11 66 109 78
109 5 0 87 -56 181 -125 123 -90 175 -123 183 -115 8 8 8 13 -1 18 -48 30
-343 249 -343 255 0 12 73 107 82 107 7 0 231 -165 344 -252 7 -5 14 -3 17 5
3 9 -53 57 -160 138 -91 68 -171 127 -176 131 -10 6 66 118 79 118 3 0 76 -55
162 -122 86 -67 163 -126 170 -131 8 -7 16 -7 23 0 6 6 -51 56 -161 141 -93
73 -170 136 -170 141 0 5 19 32 41 60 37 46 43 50 58 38 127 -107 330 -265
335 -260 3 4 6 10 6 14 0 4 -76 69 -170 145 l-170 136 41 49 c22 27 45 51 49
54 5 3 169 -130 366 -295 240 -201 361 -297 368 -290 6 6 6 13 0 18 -5 5 -164
138 -354 297 -190 159 -348 291 -353 295 -4 3 15 30 41 60 l49 54 137 -119
c186 -162 196 -169 207 -158 5 5 -55 64 -156 152 -91 78 -165 146 -165 149 0
4 20 29 44 56 l43 50 30 -25 c17 -13 92 -79 166 -147 78 -70 138 -118 142
-112 9 15 5 19 -164 170 -165 148 -161 138 -92 204 l40 39 157 -147 c140 -131
171 -155 177 -135 1 3 -69 72 -156 153 l-157 148 19 26 c11 15 32 39 48 54
l28 27 162 -155 c109 -104 164 -150 169 -142 5 8 -47 65 -152 165 l-159 152
53 53 52 53 334 -334 c223 -222 336 -329 341 -321 5 8 -106 126 -324 344
l-331 331 51 50 51 50 152 -159 c99 -103 157 -157 165 -152 8 5 -40 62 -143
170 l-155 163 37 34 c72 68 54 76 214 -93 79 -84 148 -154 153 -156 35 -13 -3
38 -131 173 l-147 156 39 40 c67 69 56 75 214 -102 127 -142 165 -176 160
-144 -1 6 -53 67 -116 137 -63 70 -127 142 -142 159 l-26 32 49 43 c28 24 53
44 57 44 4 0 71 -74 150 -165 87 -100 146 -161 152 -155 11 11 16 5 -149 194
l-129 149 54 49 c43 38 56 46 66 36 8 -10 571 -683 591 -707 2 -3 8 0 14 6 7
7 -83 121 -290 368 -165 197 -298 361 -296 365 3 5 27 27 54 49 l49 41 137
-170 c76 -93 141 -170 145 -170 24 0 6 29 -107 169 -69 86 -132 163 -140 172
-12 15 -8 21 38 58 28 22 55 41 60 41 4 0 67 -76 140 -169 84 -107 138 -167
146 -164 8 3 10 10 5 17 -5 6 -66 84 -135 173 -70 89 -127 164 -127 167 0 8
110 90 114 85 1 -2 61 -81 133 -176 85 -112 134 -169 142 -164 8 5 -30 63
-119 180 -71 94 -130 175 -130 179 0 9 96 82 107 82 5 0 35 -37 68 -82 161
-224 197 -270 207 -260 6 6 -34 69 -116 182 -69 95 -126 176 -126 180 0 10 94
80 107 80 5 0 128 -170 273 -377 145 -208 265 -380 267 -382 2 -3 8 0 14 6 7
7 -68 122 -251 382 -143 205 -263 378 -266 386 -7 17 103 93 115 79 4 -5 61
-87 126 -182 78 -115 121 -170 127 -164 7 7 -31 71 -112 191 -68 100 -121 183
-119 185 7 5 93 62 105 69 8 4 58 -63 134 -179 81 -125 125 -183 131 -177 7 7
-22 59 -87 159 -53 82 -107 166 -120 186 l-24 37 61 37 c33 20 64 32 68 28 4
-5 57 -88 116 -184 60 -96 110 -177 112 -179 2 -3 8 0 14 6 7 7 -19 56 -83
159 -52 82 -104 166 -116 186 l-23 37 55 36 c30 19 59 35 63 35 5 0 58 -83
118 -185 61 -101 116 -185 124 -185 19 0 13 12 -104 207 -58 96 -105 177 -105
181 0 8 107 72 118 72 4 -1 90 -146 192 -323 276 -482 281 -490 292 -479 7 7
-66 143 -221 410 -127 221 -231 404 -231 409 0 4 27 22 60 40 l60 32 24 -42
c13 -23 62 -110 108 -194 56 -100 88 -149 96 -144 8 5 -22 67 -93 196 -58 105
-105 193 -105 196 0 7 120 73 124 67 3 -2 161 -301 198 -372 7 -12 13 -15 20
-8 7 7 -21 70 -91 202 -55 105 -101 193 -101 196 0 4 116 64 125 64 3 0 48
-87 101 -192 53 -106 98 -195 100 -197 3 -3 8 0 14 5 5 5 -30 85 -90 205 l-99
195 65 32 65 32 97 -199 c72 -147 101 -198 111 -192 9 6 -11 55 -83 199 -53
106 -96 196 -96 200 0 14 119 67 129 56 5 -5 95 -196 201 -424 106 -228 195
-417 197 -419 2 -3 8 0 13 5 7 7 -57 153 -188 435 l-199 424 51 27 c28 15 58
27 67 28 11 0 27 -25 49 -72 120 -270 144 -318 156 -318 8 0 14 1 14 3 0 2
-34 79 -76 173 -41 93 -82 184 -89 202 l-14 33 56 24 c30 14 61 25 68 25 6 0
49 -89 95 -197 46 -109 85 -200 87 -202 2 -3 8 0 13 5 7 7 -18 77 -75 209 -46
110 -81 202 -77 206 11 10 122 52 126 48 3 -4 133 -324 158 -388 6 -18 12 -21
20 -13 8 8 -11 64 -67 204 -42 106 -79 198 -82 204 -4 10 94 54 121 54 8 0 46
-87 91 -202 43 -112 78 -204 79 -205 1 -1 7 1 13 5 9 6 -4 51 -48 162 -32 85
-68 178 -79 207 l-19 51 66 26 c37 14 68 25 69 23 1 -1 73 -198 160 -437 86
-239 161 -439 165 -444 34 -39 -2 79 -139 456 l-159 436 68 25 68 24 49 -141
c27 -78 59 -171 71 -208 14 -42 28 -68 37 -68 8 0 14 2 14 4 0 3 -31 96 -70
207 -38 112 -70 206 -70 210 0 8 129 53 134 48 2 -2 33 -97 70 -211 61 -191
73 -218 88 -203 3 3 -25 99 -62 213 -37 114 -66 210 -64 213 5 10 125 41 131
35 3 -3 34 -97 68 -208 34 -111 67 -204 73 -206 20 -6 14 18 -48 221 -33 107
-60 199 -60 204 0 10 128 49 134 42 2 -2 29 -94 61 -204 31 -110 61 -204 66
-209 25 -27 17 23 -36 206 -31 112 -58 207 -59 212 -1 11 126 48 135 38 3 -4
56 -205 118 -447 62 -242 114 -441 115 -442 1 -1 7 1 13 5 8 5 -22 138 -103
451 -78 303 -111 447 -103 451 17 11 120 32 126 27 3 -3 27 -95 54 -204 60
-240 57 -229 71 -215 8 8 -3 66 -41 217 -28 113 -49 210 -46 214 5 9 125 35
131 28 2 -2 25 -91 49 -198 54 -231 54 -229 66 -229 15 0 11 22 -36 228 -25
108 -44 201 -41 207 3 10 124 40 131 33 2 -2 24 -97 48 -211 24 -114 47 -210
50 -213 23 -23 18 28 -21 214 -25 117 -43 215 -40 217 8 8 127 29 132 24 3 -3
24 -100 47 -217 27 -138 46 -211 53 -209 14 5 13 14 -30 236 -19 101 -33 189
-30 196 3 9 125 38 133 31 1 -1 163 -913 163 -922 0 -2 7 -4 16 -4 12 0 15 6
11 23 -25 102 -157 901 -151 907 5 5 37 12 71 17 l61 9 33 -208 c18 -114 36
-214 40 -220 23 -36 20 24 -10 213 -26 164 -31 213 -21 219 13 8 121 23 126
17 2 -2 18 -100 35 -218 17 -118 33 -216 35 -218 2 -3 9 0 14 5 5 5 -2 86 -20
209 -16 110 -30 208 -30 217 0 13 14 18 66 23 43 5 69 4 73 -3 3 -6 17 -103
30 -216 18 -152 28 -206 38 -206 17 0 17 1 -12 233 -14 110 -24 202 -21 204 2
3 35 6 73 6 l68 2 22 -208 c24 -231 24 -229 39 -219 9 5 6 64 -11 222 -13 118
-22 216 -22 216 1 1 35 5 75 9 l72 7 0 -28 c1 -59 78 -905 83 -911 21 -20 18
58 -18 471 -33 382 -38 467 -27 471 8 3 40 5 73 5 49 0 59 -3 59 -17 0 -50 31
-417 35 -422 19 -18 21 35 9 194 -7 99 -13 197 -14 217 l0 36 70 4 c57 2 70 0
71 -12 0 -8 6 -107 12 -219 9 -159 15 -205 26 -209 14 -5 13 79 -6 356 l-6 93
74 -3 74 -3 6 -160 c4 -88 7 -186 8 -217 1 -44 5 -58 16 -58 15 0 15 65 0 352
-5 99 -9 95 88 97 l57 1 0 -204z"/>
<path d="M9744 9876 c-29 -29 -34 -41 -34 -79 0 -63 14 -93 52 -118 42 -25
100 -20 135 13 l25 23 -7 -40 c-8 -44 -29 -90 -45 -100 -23 -14 -71 -7 -93 13
-49 46 -79 13 -32 -33 32 -33 119 -36 157 -5 78 61 88 261 18 332 -25 24 -36
28 -85 28 -51 0 -60 -3 -91 -34z m146 -34 c30 -37 27 -95 -6 -121 -15 -12 -37
-21 -49 -21 -12 0 -34 9 -49 21 -47 37 -29 142 27 151 35 6 56 -2 77 -30z"/>
<path d="M10077 9889 c-70 -55 -74 -257 -7 -329 25 -27 35 -30 85 -30 49 0 60
4 85 28 73 73 66 282 -11 336 -35 24 -119 21 -152 -5z m146 -59 c15 -28 17
-53 15 -121 -5 -110 -21 -139 -78 -139 -21 0 -45 7 -54 15 -47 47 -47 223 1
270 10 11 29 15 57 13 35 -3 43 -8 59 -38z"/>
<path d="M11163 9804 c-39 -17 -53 -29 -53 -44 0 -20 1 -20 38 -4 20 9 42 18
48 20 7 3 3 -40 -12 -123 -13 -70 -23 -136 -24 -147 0 -16 -6 -18 -55 -11 -50
6 -55 5 -55 -13 0 -16 14 -21 103 -36 56 -10 110 -20 120 -22 12 -4 17 0 17
14 0 22 -18 32 -56 32 -31 0 -31 5 2 192 23 126 25 152 13 159 -19 12 -27 11
-86 -17z"/>
<path d="M8554 9801 c-43 -26 -58 -75 -51 -168 6 -85 42 -173 81 -198 34 -23
103 -21 135 3 59 43 73 114 45 232 -17 72 -47 124 -82 139 -36 17 -94 13 -128
-8z m125 -47 c27 -34 41 -83 48 -169 5 -62 3 -73 -17 -97 -28 -36 -77 -38
-107 -5 -50 54 -72 238 -33 277 30 30 83 27 109 -6z"/>
<path d="M11454 9762 c-46 -29 -77 -108 -81 -212 -4 -97 5 -123 56 -157 96
-65 184 7 212 175 14 85 -2 154 -42 185 -39 28 -107 33 -145 9z m126 -48 c21
-21 19 -144 -4 -211 -18 -54 -55 -93 -87 -93 -10 0 -30 10 -44 23 -24 20 -27
30 -26 85 0 86 27 178 60 203 29 23 74 20 101 -7z"/>
<path d="M8246 9745 c-41 -21 -55 -44 -56 -86 0 -40 31 -89 57 -89 11 0 8 -8
-11 -31 -32 -37 -34 -90 -6 -136 52 -86 221 -52 236 47 8 51 -18 109 -56 123
l-30 11 21 22 c21 23 27 63 15 102 -15 47 -110 68 -170 37z m123 -59 c12 -26
12 -33 0 -55 -34 -61 -121 -48 -127 18 -5 48 21 73 72 69 34 -2 43 -8 55 -32z
m40 -172 c24 -54 8 -97 -42 -113 -61 -20 -107 13 -107 76 0 38 18 61 55 72 40
11 80 -4 94 -35z"/>
<path d="M11764 9712 c-46 -29 -77 -108 -81 -212 -4 -97 5 -123 56 -157 96
-65 184 7 212 175 14 85 -2 154 -42 185 -39 28 -107 33 -145 9z m126 -48 c21
-21 19 -144 -4 -211 -18 -54 -55 -93 -87 -93 -10 0 -30 10 -44 23 -24 20 -27
30 -26 85 0 86 27 178 60 203 29 23 74 20 101 -7z"/>
<path d="M12689 9465 c-58 -15 -69 -22 -69 -42 0 -11 6 -14 23 -9 12 4 34 9
49 12 l26 6 -50 -138 c-28 -77 -52 -140 -53 -142 -2 -2 -20 4 -41 13 -40 17
-64 14 -64 -7 0 -12 190 -88 219 -88 6 0 11 8 11 18 0 13 -12 22 -40 31 l-40
12 15 37 c51 130 104 286 100 292 -9 15 -41 16 -86 5z"/>
<path d="M7114 9436 c-17 -7 -41 -27 -53 -42 -20 -25 -23 -37 -19 -94 6 -82
48 -179 95 -220 63 -56 168 -31 193 45 35 107 -59 308 -150 320 -19 3 -49 -1
-66 -9z m85 -42 c33 -24 82 -138 88 -205 5 -48 2 -60 -16 -78 -23 -23 -61 -27
-92 -11 -25 14 -66 95 -85 170 -18 69 -7 105 36 127 33 17 41 16 69 -3z"/>
<path d="M12949 9375 c-58 -15 -69 -22 -69 -42 0 -11 6 -14 23 -9 12 4 34 9
49 12 l26 6 -50 -138 c-28 -77 -52 -140 -53 -142 -2 -2 -20 4 -41 13 -40 17
-64 14 -64 -7 0 -12 190 -88 219 -88 6 0 11 8 11 18 0 13 -12 22 -40 31 l-40
12 15 37 c51 130 104 286 100 292 -9 15 -41 16 -86 5z"/>
<path d="M6832 9320 c-57 -21 -106 -41 -109 -44 -3 -3 -3 -12 0 -21 5 -13 20
-10 102 20 81 29 95 32 91 17 -25 -85 -33 -235 -17 -305 11 -48 14 -51 41 -42
15 5 19 12 15 23 -20 51 -26 147 -14 230 16 109 17 154 4 158 -5 2 -56 -15
-113 -36z"/>
<path d="M13195 9272 c-35 -21 -76 -93 -99 -171 -29 -98 -17 -147 43 -188 74
-50 146 -17 201 91 27 53 35 83 38 136 5 77 -5 103 -51 130 -40 25 -93 25
-132 2z m122 -48 c22 -22 25 -31 20 -68 -15 -108 -84 -226 -132 -226 -12 0
-35 10 -50 22 -26 20 -27 25 -22 79 5 62 45 160 79 196 29 31 72 30 105 -3z"/>
<path d="M9744 9076 c-29 -29 -34 -41 -34 -79 0 -63 14 -93 52 -118 42 -25
100 -20 135 13 l26 23 -8 -40 c-7 -43 -29 -90 -45 -100 -23 -14 -71 -7 -93 13
-49 46 -79 13 -32 -33 19 -20 34 -25 77 -25 32 0 62 6 76 16 38 27 64 91 66
163 1 90 -10 134 -43 170 -26 28 -35 31 -86 31 -51 0 -60 -3 -91 -34z m146
-34 c30 -37 27 -95 -6 -121 -57 -45 -124 -10 -124 64 0 47 21 82 53 87 35 6
56 -2 77 -30z"/>
<path d="M10070 9082 c-66 -66 -65 -256 2 -322 26 -26 37 -30 85 -30 47 0 59
4 83 28 68 69 68 255 0 324 -25 24 -36 28 -85 28 -49 0 -60 -4 -85 -28z m153
-53 c24 -45 20 -193 -6 -232 -31 -47 -106 -38 -129 16 -17 41 -17 173 1 214
25 61 103 62 134 2z"/>
<path d="M8804 9021 c-43 -26 -58 -75 -51 -166 6 -83 38 -167 75 -195 38 -30
112 -27 151 6 52 43 62 109 35 227 -14 58 -24 79 -54 110 -32 31 -44 37 -81
37 -26 0 -57 -8 -75 -19z m125 -47 c25 -31 39 -79 47 -156 11 -96 -11 -138
-71 -138 -45 0 -69 27 -89 99 -23 83 -21 176 4 201 30 30 83 27 109 -6z"/>
<path d="M11191 9017 c-51 -30 -65 -96 -31 -140 l21 -26 -30 -16 c-38 -19 -51
-43 -51 -95 0 -54 22 -85 76 -106 80 -30 150 -1 174 72 13 39 6 70 -23 101
-11 13 -19 24 -16 25 2 2 13 8 24 14 54 29 55 118 3 157 -33 25 -114 32 -147
14z m119 -47 c41 -41 13 -110 -43 -110 -47 0 -77 25 -77 62 0 17 7 40 17 50
22 24 77 24 103 -2z m-25 -175 c29 -28 30 -43 11 -90 -32 -77 -146 -48 -146
37 0 74 82 107 135 53z"/>
<path d="M8494 8971 c-43 -26 -58 -75 -51 -166 6 -83 38 -167 75 -195 38 -30
112 -27 151 6 52 43 62 109 35 227 -14 58 -24 79 -54 110 -32 31 -44 37 -81
37 -26 0 -57 -8 -75 -19z m125 -47 c25 -31 39 -79 47 -156 11 -96 -11 -138
-71 -138 -45 0 -69 27 -89 99 -23 83 -21 176 4 201 30 30 83 27 109 -6z"/>
<path d="M11508 8955 c-15 -9 -38 -39 -55 -72 -25 -52 -28 -69 -28 -156 0 -98
0 -99 32 -127 69 -62 155 -45 198 40 28 55 49 169 39 214 -21 97 -106 144
-186 101z m113 -44 c22 -18 24 -27 22 -98 -3 -165 -73 -255 -149 -190 -23 20
-27 31 -27 78 1 173 75 275 154 210z"/>
<path d="M8245 8922 c-34 -7 -103 -81 -97 -104 4 -18 8 -16 43 18 22 21 39 36
39 33 0 -3 11 -68 25 -145 14 -76 25 -142 25 -145 0 -4 -20 -10 -45 -13 -48
-8 -58 -15 -46 -35 6 -10 27 -9 102 4 123 21 129 23 129 46 0 20 -8 20 -72 3
-18 -5 -16 -15 -53 196 -15 79 -27 145 -28 145 -1 1 -11 -1 -22 -3z"/>
<path d="M14085 8882 c-49 -3 -75 -15 -75 -34 0 -7 20 -9 50 -6 28 3 50 4 50
2 0 -3 -141 -246 -147 -253 -2 -3 -21 6 -43 18 -39 22 -60 21 -60 -2 0 -7 46
-38 102 -70 77 -44 103 -55 110 -45 12 20 10 24 -27 44 -19 10 -35 22 -35 27
0 4 38 73 84 152 96 165 96 173 -9 167z"/>
<path d="M5669 8797 c-68 -46 -74 -109 -19 -217 74 -147 181 -189 262 -103 55
59 10 212 -88 303 -53 48 -101 54 -155 17z m123 -50 c49 -48 98 -147 98 -195
0 -32 -6 -45 -27 -62 -52 -40 -108 -4 -167 110 -44 84 -47 130 -10 159 38 30
68 26 106 -12z"/>
<path d="M14296 8729 c-25 -19 -26 -23 -12 -37 13 -13 18 -13 47 1 62 30 129
-22 107 -84 -14 -39 -42 -54 -139 -74 -106 -22 -178 -56 -179 -86 0 -11 212
-129 221 -123 22 13 4 33 -66 73 -42 24 -78 47 -80 52 -8 12 8 18 106 40 148
32 189 63 189 142 0 43 -24 75 -74 98 -54 24 -87 24 -120 -2z"/>
<path d="M7514 8726 c-17 -7 -41 -27 -53 -42 -20 -25 -23 -37 -19 -94 6 -82
48 -179 95 -220 63 -56 168 -31 193 45 35 107 -59 308 -150 320 -19 3 -49 -1
-66 -9z m88 -45 c35 -28 79 -132 85 -201 5 -49 3 -60 -16 -79 -23 -23 -61 -27
-92 -10 -26 13 -75 116 -89 186 -10 46 -9 58 5 79 28 44 70 53 107 25z"/>
<path d="M12514 8689 c-10 -16 3 -24 85 -53 41 -15 78 -29 82 -32 5 -3 -31
-43 -80 -89 -99 -95 -158 -188 -131 -205 24 -16 27 -13 60 48 34 64 85 123
169 193 35 30 52 51 49 61 -4 8 -53 31 -110 51 -115 41 -114 41 -124 26z"/>
<path d="M5423 8654 c-46 -23 -65 -57 -65 -117 1 -67 48 -161 107 -216 38 -35
51 -41 87 -41 71 0 127 50 128 113 1 70 -64 147 -123 147 -45 0 -96 -34 -109
-73 l-12 -32 -18 40 c-39 87 -10 152 63 142 22 -3 45 0 55 7 16 12 15 14 -7
29 -29 21 -65 21 -106 1z m181 -195 c75 -89 -26 -192 -105 -108 -55 59 -29
139 45 139 26 0 41 -7 60 -31z"/>
<path d="M7228 8622 c-21 -9 -78 -87 -78 -106 0 -31 20 -25 46 14 l28 42 48
-132 c26 -73 48 -138 48 -146 0 -7 -18 -19 -40 -25 -28 -9 -40 -18 -40 -31 0
-10 6 -18 13 -18 27 0 217 76 217 87 0 20 -15 23 -54 11 -28 -9 -39 -9 -44 0
-4 6 -32 79 -62 161 -30 83 -57 151 -60 150 -3 0 -13 -3 -22 -7z"/>
<path d="M14575 8581 c-102 -61 -178 -250 -129 -319 37 -54 118 -67 175 -29
70 47 148 201 134 265 -10 48 -81 102 -133 102 -9 0 -31 -8 -47 -19z m125 -61
c18 -33 11 -71 -26 -141 -41 -78 -92 -129 -130 -129 -14 0 -36 11 -50 26 -22
21 -25 31 -19 62 14 75 92 194 139 212 27 9 74 -7 86 -30z"/>
<path d="M12825 8562 c-35 -21 -76 -93 -99 -171 -29 -98 -17 -147 43 -188 73
-50 146 -17 200 89 42 83 54 191 27 234 -34 51 -117 68 -171 36z m122 -48 c22
-22 25 -31 20 -68 -15 -108 -84 -226 -132 -226 -12 0 -35 10 -50 22 -26 20
-27 25 -22 79 5 62 45 160 79 196 29 31 72 30 105 -3z"/>
<path d="M6978 8522 c-21 -9 -78 -87 -78 -106 0 -31 20 -25 46 14 l28 42 48
-132 c26 -73 48 -138 48 -146 0 -7 -18 -19 -40 -25 -28 -9 -40 -18 -40 -31 0
-10 6 -18 13 -18 27 0 217 76 217 87 0 20 -15 23 -54 11 -28 -9 -39 -9 -44 0
-4 6 -32 79 -62 161 -30 83 -57 151 -60 150 -3 0 -13 -3 -22 -7z"/>
<path d="M9980 5040 l0 -3490 -29 0 c-24 0 -30 5 -35 28 -3 15 -276 1559 -606
3431 -330 1872 -602 3407 -605 3410 -3 2 -9 0 -14 -5 -5 -5 251 -1478 596
-3438 495 -2804 603 -3430 592 -3437 -8 -5 -21 -9 -30 -9 -11 0 -316 826
-1204 3268 -654 1797 -1192 3271 -1196 3276 -4 4 -12 7 -17 5 -6 -2 527 -1480
1183 -3284 657 -1803 1193 -3280 1192 -3280 -1 -1 -13 -6 -27 -12 l-26 -11
-1743 3020 c-959 1660 -1748 3017 -1753 3016 -5 -2 -10 -7 -10 -11 0 -5 783
-1365 1741 -3024 l1741 -3015 -23 -18 c-21 -18 -23 -18 -38 -2 -9 9 -1019
1212 -2244 2672 -1225 1460 -2230 2654 -2234 2653 -3 -1 -7 -6 -9 -11 -1 -5
1005 -1210 2237 -2678 l2240 -2669 -21 -23 -22 -22 -25 24 c-14 13 -1216 1021
-2669 2240 -1810 1518 -2649 2216 -2659 2211 -9 -3 -14 -7 -12 -9 2310 -1935
5301 -4445 5321 -4465 26 -25 26 -27 9 -47 l-17 -22 -3020 1743 c-1948 1125
-3023 1740 -3029 1734 -6 -7 -5 -13 5 -19 8 -6 1365 -789 3015 -1741 1650
-953 3004 -1735 3008 -1739 5 -4 3 -19 -5 -33 l-13 -25 -3265 1189 c-1796 654
-3273 1191 -3282 1195 -30 9 -21 -23 10 -34 15 -5 1476 -537 3247 -1182 1771
-645 3232 -1177 3248 -1182 19 -7 27 -17 27 -33 0 -13 -4 -26 -9 -29 -5 -4
-1554 266 -3441 599 -1888 333 -3434 605 -3436 605 -2 0 -4 -6 -4 -14 0 -9 22
-18 68 -26 204 -35 6761 -1191 6783 -1195 22 -5 25 -10 21 -35 l-4 -30 -3494
0 c-3099 0 -3494 -2 -3494 -15 0 -13 395 -15 3493 -15 2729 1 3495 3 3507 13
9 7 21 42 27 80 39 231 234 397 468 397 235 0 429 -165 468 -397 6 -38 18 -73
27 -80 12 -10 776 -12 3503 -13 3093 0 3487 2 3487 15 0 13 -394 15 -3489 15
l-3489 0 -4 30 c-4 25 -1 30 21 35 22 4 6572 1159 6784 1195 45 8 67 17 67 26
0 8 -2 14 -4 14 -2 0 -1548 -272 -3436 -605 -1887 -333 -3436 -603 -3441 -599
-5 3 -9 16 -9 29 0 16 8 26 28 33 15 5 1476 537 3247 1182 1771 645 3232 1177
3248 1182 30 11 39 43 10 34 -10 -4 -1487 -541 -3283 -1195 -3201 -1165 -3265
-1188 -3277 -1167 -7 11 -12 24 -13 27 0 4 1359 791 3020 1750 1661 959 3019
1748 3016 1754 -2 5 -8 9 -13 8 -5 -1 -1365 -785 -3023 -1741 l-3013 -1740
-18 22 c-17 20 -17 22 9 47 15 15 1217 1025 2672 2244 1455 1220 2647 2219
2649 2221 2 2 -3 6 -12 9 -10 4 -806 -657 -2504 -2081 -1368 -1148 -2570
-2156 -2669 -2240 l-181 -153 -21 22 -21 22 2240 2669 c1232 1468 2238 2673
2237 2678 -2 5 -6 10 -9 11 -4 1 -1009 -1193 -2234 -2653 -1225 -1460 -2235
-2663 -2244 -2672 -15 -16 -17 -16 -38 2 l-23 18 1741 3015 c958 1659 1741
3019 1741 3023 0 5 -5 10 -10 12 -5 1 -793 -1356 -1752 -3016 l-1744 -3019
-28 11 c-19 7 -27 15 -22 26 3 8 538 1478 1189 3265 651 1788 1186 3258 1190
3268 11 26 -20 21 -32 -5 -5 -13 -542 -1487 -1193 -3275 -887 -2436 -1188
-3253 -1199 -3253 -9 0 -22 4 -30 9 -11 7 97 635 592 3437 349 1981 601 3433
596 3438 -5 5 -11 7 -14 5 -3 -3 -275 -1537 -605 -3410 -330 -1872 -603 -3416
-606 -3432 -5 -22 -11 -27 -35 -27 l-29 0 0 3490 c0 3096 -2 3490 -15 3490
-13 0 -15 -394 -15 -3490z"/>
<path d="M9334 8443 c3 -32 76 -866 162 -1853 85 -987 158 -1801 160 -1809 3
-10 8 -11 15 -4 8 8 -37 553 -150 1849 -89 1012 -161 1847 -161 1857 0 9 -7
17 -16 17 -14 0 -16 -9 -10 -57z"/>
<path d="M10630 8483 c0 -10 -72 -845 -161 -1857 -112 -1287 -158 -1841 -150
-1849 7 -7 12 -6 15 4 3 8 75 822 161 1809 85 987 158 1821 162 1853 5 48 3
57 -11 57 -9 0 -16 -8 -16 -17z"/>
<path d="M8050 8266 c0 -12 855 -3215 947 -3548 9 -35 21 -58 30 -58 9 0 12 7
7 25 -91 364 -965 3590 -973 3593 -6 2 -11 -4 -11 -12z"/>
<path d="M11911 8248 c-5 -18 -222 -825 -481 -1793 -259 -968 -473 -1768 -476
-1777 -3 -11 0 -18 9 -18 9 0 20 22 30 58 86 310 947 3535 947 3546 0 28 -18
17 -29 -16z"/>
<path d="M6139 8127 c-18 -12 -40 -34 -47 -47 -41 -78 74 -294 167 -315 40 -9
92 9 122 41 56 60 12 213 -87 304 -53 48 -101 54 -155 17z m125 -50 c45 -48
96 -149 98 -193 1 -29 -5 -42 -27 -61 -52 -45 -108 -9 -169 107 -44 84 -47
130 -10 159 39 30 71 27 108 -12z"/>
<path d="M13815 8106 c-72 -31 -155 -163 -155 -247 0 -103 115 -166 190 -103
58 49 78 128 44 179 -18 28 -83 56 -113 48 -12 -3 -21 -1 -21 6 0 17 69 80 95
87 34 8 74 -19 81 -56 6 -28 38 -47 50 -29 10 17 -6 66 -29 87 -24 23 -69 42
-95 42 -9 -1 -30 -7 -47 -14z m23 -176 c41 -39 18 -127 -39 -150 -21 -9 -33
-8 -58 4 -49 26 -54 84 -10 139 26 34 75 36 107 7z"/>
<path d="M15305 8040 c-18 -20 -17 -20 21 -20 72 0 70 -9 -26 -123 -49 -59
-91 -109 -95 -110 -3 -1 -21 11 -41 27 -31 24 -38 26 -50 14 -12 -12 0 -25 78
-91 80 -66 94 -75 107 -63 12 13 10 18 -17 41 -18 15 -32 31 -32 35 0 5 47 65
105 134 58 69 105 129 105 134 0 14 -41 30 -91 36 -38 4 -50 2 -64 -14z"/>
<path d="M5894 7981 c-55 -25 -84 -64 -84 -112 0 -25 5 -39 13 -39 23 0 35 15
35 43 -1 43 38 79 82 75 29 -2 38 -9 54 -39 l20 -36 -32 -100 c-32 -100 -41
-186 -22 -198 6 -3 59 22 119 56 95 54 108 64 98 79 -9 16 -18 13 -94 -32 -47
-27 -87 -47 -91 -44 -3 4 5 41 18 84 49 163 50 198 7 247 -30 34 -72 40 -123
16z"/>
<path d="M4434 7966 c-46 -20 -74 -62 -74 -109 0 -56 30 -113 92 -176 54 -55
99 -81 140 -81 36 0 87 36 105 75 15 31 15 42 5 81 -22 82 -105 180 -178 210
-41 17 -50 17 -90 0z m118 -76 c58 -50 109 -130 110 -170 1 -39 -30 -72 -67
-72 -64 0 -195 146 -195 219 0 29 41 63 75 63 23 0 45 -11 77 -40z"/>
<path d="M14075 7966 c-69 -30 -155 -172 -155 -256 0 -52 18 -83 60 -105 85
-44 163 3 232 138 55 110 39 186 -49 223 -39 17 -49 17 -88 0z m115 -66 c6
-10 10 -31 10 -45 0 -39 -50 -134 -96 -182 -48 -51 -82 -56 -120 -17 -22 21
-25 31 -19 62 14 75 92 194 139 212 27 9 74 -7 86 -30z"/>
<path d="M15544 7866 c-17 -13 -18 -16 -3 -31 12 -13 21 -13 48 -4 28 10 37 9
59 -8 54 -40 32 -123 -32 -123 -18 0 -45 9 -59 20 -24 19 -26 19 -35 3 -8 -13
-3 -23 19 -46 44 -43 38 -96 -13 -123 -36 -19 -60 -12 -93 28 -20 24 -24 37
-19 63 5 27 2 35 -14 44 -24 13 -32 -2 -32 -59 0 -27 8 -48 26 -70 70 -82 175
-79 210 7 12 28 12 38 1 66 l-14 32 38 -3 c77 -8 127 86 83 153 -37 56 -126
83 -170 51z"/>
<path d="M5617 7819 c-9 -6 -29 -32 -42 -60 -22 -42 -24 -53 -13 -72 11 -21
13 -20 32 26 11 26 22 47 25 47 5 0 139 -226 149 -251 2 -4 -15 -17 -37 -29
-42 -21 -46 -27 -33 -47 5 -8 35 5 101 42 108 61 113 66 102 83 -7 11 -16 10
-48 -7 l-40 -20 -83 145 c-46 80 -86 146 -89 149 -4 2 -14 -1 -24 -6z"/>
<path d="M6823 7818 c14 -39 1572 -3375 1578 -3382 50 -57 -94 263 -767 1707
-517 1108 -792 1687 -802 1687 -8 0 -12 -6 -9 -12z"/>
<path d="M12356 6143 c-674 -1446 -816 -1763 -767 -1707 7 8 1564 3343 1578
3381 3 7 -1 13 -9 13 -10 0 -286 -582 -802 -1687z"/>
<path d="M4168 7738 l-86 -71 60 -83 c52 -71 64 -82 79 -73 11 5 22 21 25 34
3 14 20 36 36 50 48 41 104 30 133 -25 22 -43 18 -68 -15 -102 -27 -26 -36
-30 -70 -25 -50 6 -76 -17 -45 -40 47 -35 152 15 182 85 25 61 -5 135 -69 168
-54 28 -132 1 -168 -59 l-17 -28 -36 48 -35 48 36 30 c90 73 105 90 90 103
-11 9 -31 -3 -100 -60z"/>
<path d="M15795 7664 c-45 -23 -113 -93 -146 -149 -38 -65 -39 -122 -4 -164
61 -72 145 -60 234 34 113 119 120 230 17 279 -42 20 -63 20 -101 0z m114 -60
c12 -15 21 -34 21 -43 0 -30 -57 -116 -108 -163 -41 -38 -58 -48 -86 -48 -45
0 -80 41 -72 83 8 38 54 103 110 155 56 52 102 57 135 16z"/>
<path d="M5084 7456 c-98 -43 -98 -155 -1 -266 44 -50 97 -88 133 -96 73 -14
149 55 141 127 -10 80 -92 190 -170 228 -50 24 -61 25 -103 7z m135 -94 c89
-88 116 -158 77 -201 -26 -29 -51 -31 -95 -9 -61 30 -151 148 -151 197 0 37
37 71 78 71 28 0 44 -10 91 -58z"/>
<path d="M14921 7306 c-69 -70 -71 -73 -53 -89 10 -9 25 -17 33 -17 25 0 79
-40 89 -65 20 -51 -37 -125 -96 -125 -9 0 -32 16 -51 35 -25 25 -34 42 -31 61
3 27 -24 56 -39 41 -14 -15 -7 -77 13 -104 52 -70 129 -91 191 -53 90 54 81
179 -15 227 l-41 20 42 41 42 41 68 -56 c55 -45 70 -54 78 -42 14 22 22 13
-130 136 l-28 22 -72 -73z"/>
<path d="M4840 7253 c-62 -32 -96 -105 -70 -154 9 -15 14 -17 29 -7 15 9 18
19 14 45 -12 70 73 112 116 57 27 -35 26 -56 -4 -92 -45 -53 -26 -76 31 -37
20 14 43 25 51 25 22 0 73 -56 73 -80 0 -32 -53 -80 -87 -80 -16 0 -34 5 -41
12 -19 19 -50 -15 -33 -36 22 -26 74 -30 117 -8 96 49 118 138 50 202 -24 22
-81 30 -106 15 -9 -6 -9 -2 -1 13 18 34 12 70 -16 102 -36 38 -77 46 -123 23z"/>
<path d="M5697 7173 c-6 -11 2129 -3058 2142 -3058 6 0 11 4 12 8 1 12 -2133
3057 -2142 3057 -4 0 -10 -3 -12 -7z"/>
<path d="M13207 5658 c-586 -838 -1067 -1527 -1067 -1533 -1 -5 3 -11 8 -13 9
-3 2145 3039 2144 3054 0 5 -5 10 -9 11 -5 2 -489 -682 -1076 -1519z"/>
<path d="M15195 7134 c-45 -23 -113 -93 -146 -149 -38 -65 -39 -122 -4 -164
62 -73 147 -60 236 37 111 121 117 228 16 275 -43 21 -64 21 -102 1z m114 -60
c27 -35 26 -49 -8 -109 -43 -75 -122 -145 -164 -145 -47 0 -82 38 -73 80 8 41
53 105 110 158 56 52 102 57 135 16z"/>
<path d="M4588 7037 c-9 -7 -24 -39 -33 -71 -15 -52 -15 -60 -2 -73 14 -14 17
-11 27 28 6 24 12 48 14 53 1 5 46 -43 100 -107 l97 -116 -37 -34 c-33 -30
-40 -57 -15 -57 5 0 133 103 180 146 2 2 -2 10 -9 19 -11 13 -16 12 -42 -10
-16 -14 -33 -25 -37 -25 -4 0 -50 50 -102 112 -52 62 -101 120 -109 130 -12
14 -18 15 -32 5z"/>
<path d="M16450 6996 c-9 -12 -4 -17 32 -26 24 -6 47 -12 52 -14 5 -1 -42 -45
-105 -98 l-114 -97 -37 36 c-32 31 -58 37 -58 14 0 -5 115 -148 146 -180 2 -2
10 2 19 9 13 11 12 16 -10 42 -14 16 -25 33 -25 37 0 5 58 57 129 116 148 122
151 131 51 159 -68 19 -65 19 -80 2z"/>
<path d="M3316 6885 c-68 -67 -56 -134 38 -223 98 -93 185 -117 245 -67 72 61
60 145 -34 234 -63 59 -124 90 -177 91 -29 0 -45 -7 -72 -35z m139 -34 c28
-16 71 -51 98 -79 37 -41 47 -58 47 -86 0 -45 -41 -80 -83 -72 -38 8 -103 54
-155 110 -52 56 -57 102 -16 135 35 27 49 26 109 -8z"/>
<path d="M16635 6701 c-134 -16 -165 -23 -165 -40 0 -4 25 -36 55 -71 l55 -65
-35 -31 c-34 -30 -34 -32 -16 -48 17 -16 20 -15 50 10 31 26 32 26 52 8 25
-23 46 -6 30 24 -6 11 -11 22 -11 24 0 2 43 39 95 82 52 43 95 82 95 86 0 12
-36 40 -51 39 -8 -1 -77 -9 -154 -18z m90 -57 c-22 -20 -56 -49 -77 -65 l-36
-29 -41 47 c-22 26 -39 49 -37 51 2 1 53 9 112 16 60 7 111 14 114 14 3 1 -13
-15 -35 -34z"/>
<path d="M3146 6671 c-16 -18 -16 -23 8 -102 13 -46 34 -116 45 -155 25 -86
42 -97 79 -52 15 18 41 48 57 67 l31 33 33 -27 c30 -26 33 -27 49 -11 16 16
15 19 -16 47 -32 29 -33 31 -17 55 14 22 14 25 0 30 -9 4 -24 -1 -34 -10 -18
-16 -24 -13 -114 64 -53 44 -98 80 -100 80 -2 0 -12 -9 -21 -19z m122 -126
c33 -27 61 -52 61 -55 1 -3 -18 -27 -41 -54 l-43 -48 -31 111 c-18 65 -26 107
-19 103 7 -4 39 -29 73 -57z"/>
<path d="M16824 6530 c-51 -25 -136 -108 -158 -154 -21 -45 -20 -74 4 -113 54
-89 158 -78 275 29 94 85 106 172 34 233 -38 31 -97 33 -155 5z m133 -42 c42
-39 32 -81 -35 -147 -91 -92 -161 -117 -204 -74 -42 42 -17 104 72 178 79 67
129 79 167 43z"/>
<path d="M4024 6471 c-41 -25 -68 -83 -60 -127 9 -43 94 -137 160 -175 66 -38
123 -39 165 -4 73 62 60 147 -37 236 -94 86 -166 108 -228 70z m121 -50 c75
-43 145 -122 145 -164 0 -47 -38 -82 -80 -73 -41 8 -105 53 -158 110 -52 56
-57 102 -16 135 35 27 49 26 109 -8z"/>
<path d="M4705 6340 c-11 -17 2631 -2658 2645 -2644 6 6 -431 450 -1314 1333
-883 883 -1326 1319 -1331 1311z"/>
<path d="M13951 5026 c-883 -883 -1319 -1326 -1311 -1331 17 -11 2658 2631
2644 2645 -6 6 -450 -431 -1333 -1314z"/>
<path d="M15943 6281 c-79 -9 -148 -22 -154 -28 -9 -9 1 -28 44 -80 l56 -68
-32 -33 c-28 -29 -30 -34 -16 -48 14 -14 19 -13 48 12 31 26 32 26 52 8 26
-24 46 -6 29 26 -7 12 -8 26 -3 30 4 4 42 36 83 70 114 96 106 86 85 110 -10
11 -25 19 -34 19 -9 -1 -80 -9 -158 -18z m92 -57 c-22 -20 -56 -49 -77 -65
l-36 -29 -41 47 c-22 26 -38 49 -37 51 2 2 53 9 112 16 60 8 111 14 114 14 3
1 -13 -15 -35 -34z"/>
<path d="M3837 6252 c-16 -17 -14 -28 28 -172 24 -84 50 -157 57 -162 16 -10
28 -10 28 0 0 4 24 33 53 66 l53 58 32 -27 c32 -26 34 -27 50 -11 16 16 15 19
-17 46 -33 28 -34 29 -17 55 15 23 15 26 1 31 -9 4 -24 -1 -34 -10 -18 -16
-24 -13 -114 64 -53 44 -98 80 -100 80 -2 0 -11 -8 -20 -18z m121 -127 c33
-27 61 -52 61 -55 1 -3 -18 -27 -41 -54 l-42 -49 -17 59 c-9 33 -24 83 -32
112 -19 61 -19 61 71 -13z"/>
<path d="M16135 6109 c-80 -43 -160 -129 -171 -185 -14 -73 55 -149 127 -141
82 10 190 92 230 173 19 40 20 51 10 84 -25 84 -112 114 -196 69z m132 -41
c16 -14 23 -33 23 -57 0 -30 -9 -44 -59 -92 -65 -64 -109 -90 -152 -91 -32 -1
-64 22 -72 52 -8 30 30 95 76 133 98 80 143 94 184 55z"/>
<path d="M3602 5968 c-6 -13 -13 -44 -15 -70 -4 -37 0 -51 14 -64 18 -16 19
-15 19 29 0 25 4 48 8 51 9 5 222 -166 224 -180 1 -3 -11 -22 -27 -41 -24 -30
-25 -37 -13 -49 12 -12 24 -1 90 78 58 71 74 96 66 106 -9 10 -18 7 -43 -18
-17 -16 -34 -30 -38 -30 -4 0 -63 47 -131 105 -69 58 -128 105 -133 105 -6 0
-15 -10 -21 -22z"/>
<path d="M17395 5776 c-17 -12 -15 -15 28 -31 26 -10 47 -20 47 -24 0 -4 -215
-132 -250 -149 -4 -1 -16 16 -29 38 -23 42 -28 45 -48 32 -9 -6 3 -34 41 -101
63 -108 67 -113 84 -102 11 7 10 16 -6 48 l-21 39 137 79 c75 43 143 83 149
88 21 15 -3 45 -57 72 -58 29 -52 28 -75 11z"/>
<path d="M2434 5651 c-32 -14 -72 -68 -79 -105 -12 -64 48 -135 159 -187 69
-33 139 -38 174 -13 51 36 67 115 33 170 -50 82 -222 162 -287 135z m134 -76
c78 -40 132 -93 132 -131 0 -14 -11 -36 -26 -50 -21 -22 -31 -25 -62 -19 -78
14 -207 102 -212 145 -7 51 23 90 69 90 15 0 60 -16 99 -35z"/>
<path d="M17538 5504 c-49 -24 -88 -49 -88 -55 0 -7 20 -30 45 -53 37 -35 45
-49 45 -78 0 -46 -45 -88 -95 -88 -58 0 -106 82 -76 129 9 15 -6 51 -22 51 -4
0 -15 -17 -23 -37 -40 -94 62 -214 161 -189 40 10 94 64 100 100 8 40 -13 94
-49 127 l-26 25 54 27 55 26 41 -74 c38 -68 60 -89 74 -67 4 7 -85 175 -103
194 -3 3 -45 -14 -93 -38z"/>
<path d="M2274 5375 c-37 -19 -74 -81 -74 -123 0 -16 10 -42 21 -56 19 -24 24
-26 36 -13 13 13 13 19 -2 47 -16 31 -16 36 -1 66 20 43 58 54 94 27 30 -22
40 -69 22 -104 -9 -15 -9 -24 -1 -32 8 -8 20 -1 45 26 40 44 81 49 114 14 31
-33 28 -72 -8 -109 -23 -23 -36 -29 -55 -24 -18 5 -27 1 -35 -15 -15 -27 -7
-34 43 -33 33 1 47 8 73 37 18 19 38 54 45 77 11 36 10 46 -5 74 -33 62 -102
83 -149 46 -23 -18 -25 -18 -20 -2 17 67 -76 130 -143 97z"/>
<path d="M3200 5353 c-29 -11 -70 -56 -81 -90 -23 -71 35 -147 155 -204 101
-48 176 -37 211 31 31 59 13 125 -46 174 -69 58 -196 106 -239 89z m118 -70
c31 -16 76 -46 99 -69 51 -48 56 -82 17 -120 -21 -22 -31 -25 -62 -19 -78 14
-207 102 -212 145 -7 52 23 90 71 90 16 0 56 -12 87 -27z"/>
<path d="M3865 5339 c-4 -6 -3 -14 1 -18 34 -30 3046 -2131 3055 -2131 6 0 9
6 7 12 -3 9 -2246 1586 -2970 2088 -55 38 -89 56 -93 49z"/>
<path d="M14591 4282 c-839 -587 -1526 -1073 -1529 -1080 -2 -6 2 -12 8 -12 9
0 3025 2104 3055 2131 6 6 6 12 0 18 -6 6 -581 -390 -1534 -1057z"/>
<path d="M16780 5268 c0 -23 18 -41 34 -35 41 16 96 -46 81 -92 -3 -12 -19
-28 -35 -36 -35 -18 -69 -8 -96 30 -13 18 -25 24 -37 20 -15 -6 -15 -10 -2
-35 23 -45 19 -85 -11 -109 -37 -29 -68 -26 -98 10 -30 35 -33 74 -9 101 15
17 16 20 0 35 -15 16 -18 15 -36 -1 -40 -36 -31 -112 20 -171 36 -41 75 -51
122 -31 45 18 71 57 65 95 -4 28 -3 29 16 15 38 -26 113 -7 136 35 25 47 4
121 -46 160 -30 24 -104 30 -104 9z"/>
<path d="M17690 5241 c-101 -31 -204 -115 -216 -176 -13 -71 36 -134 111 -142
39 -5 57 0 119 31 96 47 156 110 156 164 0 45 -33 100 -70 119 -28 14 -62 15
-100 4z m109 -67 c12 -15 21 -37 21 -50 0 -53 -150 -154 -228 -154 -32 0 -45
6 -62 27 -41 52 -1 111 114 168 85 43 127 45 155 9z"/>
<path d="M2991 5021 c-28 -48 -51 -91 -51 -95 0 -3 37 -31 83 -61 75 -50 83
-54 95 -38 6 9 12 31 12 49 0 47 42 94 85 94 48 0 95 -42 95 -85 0 -42 -42
-95 -76 -95 -26 0 -51 -34 -33 -45 5 -4 25 -4 44 -1 41 8 90 60 106 115 10 33
9 44 -7 77 -25 50 -76 84 -127 84 -32 0 -46 -7 -78 -39 -25 -25 -39 -48 -39
-64 0 -39 -16 -41 -65 -7 l-46 31 19 32 c69 115 73 124 56 131 -8 3 -17 6 -19
6 -2 0 -26 -40 -54 -89z"/>
<path d="M16920 5001 c-96 -30 -202 -114 -215 -170 -9 -40 9 -92 41 -122 60
-56 213 -12 304 87 48 53 54 101 17 155 -36 53 -83 69 -147 50z m109 -67 c45
-57 12 -108 -107 -172 -80 -43 -127 -45 -159 -7 -45 51 -10 107 107 170 82 44
130 46 159 9z"/>
<path d="M2837 4763 c-12 -11 -8 -128 5 -141 23 -23 31 -12 25 38 -3 28 -4 50
-2 50 4 0 247 -140 254 -146 3 -2 -6 -22 -18 -44 -22 -39 -21 -60 2 -60 7 1
37 45 68 100 48 84 54 101 43 111 -12 9 -18 8 -29 -7 -8 -10 -17 -27 -20 -36
-4 -10 -11 -18 -16 -18 -6 0 -72 36 -148 80 -137 79 -152 86 -164 73z"/>
<path d="M18095 4420 c-3 -5 10 -20 29 -32 20 -13 36 -26 36 -29 0 -8 -245
-99 -265 -99 -8 0 -20 18 -26 40 -9 28 -18 40 -31 40 -10 0 -18 -6 -18 -12 0
-29 75 -218 87 -218 20 0 23 15 11 53 -6 20 -9 39 -6 42 3 3 74 31 159 61 85
31 155 58 157 59 10 8 -20 49 -55 74 -44 32 -67 38 -78 21z"/>
<path d="M1752 4285 c-49 -36 -66 -109 -37 -165 18 -35 85 -76 166 -101 104
-32 154 -22 196 40 50 73 17 146 -89 200 -82 41 -197 54 -236 26z m182 -56
c69 -25 126 -72 126 -104 0 -12 -10 -35 -22 -50 -20 -26 -25 -27 -79 -22 -62
5 -160 45 -196 79 -31 29 -30 72 3 105 22 22 31 25 68 20 24 -4 69 -16 100
-28z"/>
<path d="M3210 4207 c0 -19 3379 -1592 3393 -1578 7 7 -14 22 -74 49 -46 22
-809 377 -1696 791 -886 413 -1614 751 -1617 751 -3 0 -6 -6 -6 -13z"/>
<path d="M15125 3454 c-902 -420 -1664 -776 -1694 -790 -39 -17 -51 -28 -44
-35 8 -8 490 212 1702 777 1457 679 1741 816 1684 814 -5 -1 -746 -345 -1648
-766z"/>
<path d="M2551 4144 c-27 -19 -51 -71 -51 -109 0 -66 62 -119 181 -156 104
-32 154 -22 196 40 50 73 17 146 -89 200 -83 42 -197 54 -237 25z m183 -55
c69 -25 126 -72 126 -104 0 -12 -10 -35 -22 -50 -20 -26 -25 -27 -79 -22 -62
5 -160 45 -196 79 -31 29 -30 72 3 105 22 22 31 25 68 20 24 -4 69 -16 100
-28z"/>
<path d="M18125 4127 c-60 -20 -117 -52 -143 -80 -49 -53 -35 -153 27 -190 81
-48 201 13 201 102 0 44 -31 97 -62 107 -22 7 -22 7 -3 15 11 4 43 8 71 8 41
1 55 -3 74 -23 22 -24 23 -34 6 -91 -4 -11 -2 -27 4 -35 9 -13 13 -11 31 10
32 37 22 111 -19 153 -26 26 -40 31 -89 34 -32 1 -76 -3 -98 -10z m14 -94 c57
-48 24 -129 -57 -140 -36 -5 -47 -2 -67 17 -27 25 -32 65 -12 90 38 49 99 63
136 33z"/>
<path d="M1656 3989 c-61 -48 -74 -139 -27 -191 l28 -32 12 23 c11 20 10 26
-8 45 -42 45 -10 126 51 126 42 0 78 -42 107 -123 23 -67 75 -156 92 -158 5
-1 14 -2 20 -3 6 -1 30 51 54 114 34 92 39 117 28 123 -21 13 -26 5 -58 -87
-16 -47 -33 -86 -38 -86 -7 0 -36 58 -82 167 -38 90 -121 128 -179 82z"/>
<path d="M17409 4005 c-13 -12 4 -45 23 -45 27 0 78 -54 78 -82 0 -34 -39 -68
-79 -68 -18 0 -68 19 -120 46 -84 44 -172 67 -183 48 -6 -11 75 -235 85 -235
33 -1 28 25 -30 177 -9 25 22 16 129 -37 87 -42 109 -50 143 -45 101 13 126
137 43 213 -24 23 -78 40 -89 28z"/>
<path d="M2445 3846 c-28 -28 -45 -83 -37 -121 17 -89 214 -179 317 -145 46
15 75 60 75 116 0 72 -60 124 -143 124 -72 0 -116 -58 -104 -136 3 -18 3 -34
1 -34 -11 0 -50 24 -73 44 -50 45 -45 106 10 125 19 7 29 17 29 30 0 30 -44
28 -75 -3z m274 -91 c31 -15 41 -33 41 -71 0 -64 -105 -90 -157 -38 -20 20
-24 31 -19 57 3 17 14 39 23 49 20 22 73 24 112 3z"/>
<path d="M18225 3836 c-65 -21 -121 -53 -149 -86 -51 -62 -25 -166 49 -190
101 -33 301 55 320 141 9 41 -11 94 -46 124 -25 20 -41 25 -82 24 -29 0 -70
-6 -92 -13z m157 -53 c26 -23 31 -62 13 -90 -23 -35 -133 -84 -204 -90 -50 -5
-61 -3 -80 16 -44 44 -23 99 50 136 102 52 183 63 221 28z"/>
<path d="M17435 3696 c-65 -21 -121 -53 -149 -86 -51 -62 -25 -166 49 -190
101 -33 301 55 320 141 9 41 -11 94 -46 124 -25 20 -41 25 -82 24 -29 0 -70
-6 -92 -13z m148 -46 c33 -27 42 -65 22 -97 -23 -35 -133 -84 -204 -90 -50 -5
-61 -3 -80 16 -23 23 -27 61 -11 92 13 24 93 65 163 84 70 19 80 18 110 -5z"/>
<path d="M2312 3499 c-9 -22 6 -101 22 -128 11 -17 39 -14 33 3 -3 8 -9 30
-12 49 l-7 35 139 -50 c76 -28 139 -52 141 -53 1 -1 -5 -21 -13 -45 -15 -43
-13 -60 8 -60 11 0 87 192 87 219 0 6 -8 11 -18 11 -13 0 -22 -12 -31 -39
l-11 -40 -38 14 c-142 51 -260 94 -274 100 -13 5 -20 1 -26 -16z"/>
<path d="M2764 2988 c-3 -5 -4 -12 -1 -14 3 -3 808 -221 1790 -484 982 -263
1795 -481 1806 -485 15 -4 21 -2 21 9 0 18 195 -36 -1810 501 -938 251 -1726
462 -1753 469 -29 9 -49 10 -53 4z"/>
<path d="M15435 2519 c-979 -263 -1790 -480 -1802 -483 -13 -4 -23 -13 -23
-22 0 -11 6 -13 20 -9 12 4 824 222 1806 485 982 263 1788 481 1792 484 3 4 1
10 -4 15 -5 4 -810 -207 -1789 -470z"/>
<path d="M18556 2992 c-16 -3 -13 -9 20 -43 21 -21 34 -39 29 -39 -6 0 -71
-11 -145 -25 -74 -14 -138 -25 -141 -25 -4 0 -10 20 -13 45 -8 48 -15 58 -35
46 -10 -7 -9 -29 6 -117 17 -99 21 -109 42 -112 18 -3 22 0 18 15 -10 35 -17
73 -15 73 2 0 80 14 173 30 94 16 171 30 171 30 1 0 -1 11 -3 24 -7 33 -83
104 -107 98z"/>
<path d="M1373 2810 c-42 -10 -63 -27 -80 -67 -47 -113 40 -193 217 -200 97
-4 123 5 157 56 63 93 -5 181 -162 210 -65 12 -85 12 -132 1z m190 -66 c49
-17 87 -54 87 -85 0 -10 -10 -30 -23 -44 -19 -23 -30 -26 -78 -26 -156 0 -244
49 -223 124 6 17 21 38 34 45 31 16 136 9 203 -14z"/>
<path d="M2189 2801 c-48 -15 -71 -33 -85 -66 -32 -78 -9 -131 73 -172 52 -25
69 -28 156 -28 98 0 99 0 127 32 62 69 45 155 -40 198 -26 13 -76 29 -111 35
-73 11 -84 11 -120 1z m182 -66 c86 -31 110 -79 66 -131 -20 -23 -31 -27 -78
-27 -127 0 -229 44 -229 100 0 33 17 62 43 74 29 12 143 3 198 -16z"/>
<path d="M17796 2712 c-16 -3 -13 -9 20 -43 21 -21 36 -39 33 -39 -3 0 -68
-11 -145 -25 -76 -14 -142 -25 -145 -25 -4 0 -10 20 -13 45 -8 48 -15 58 -35
46 -10 -6 -9 -27 4 -102 21 -123 23 -129 46 -129 15 0 19 5 16 18 -19 66 -18
70 11 76 38 8 309 56 315 56 2 0 2 11 0 24 -7 33 -83 104 -107 98z"/>
<path d="M18673 2712 c-10 -6 -9 -27 4 -95 8 -48 13 -90 11 -93 -3 -2 -45 9
-94 25 -94 31 -207 48 -243 36 -15 -4 -21 -13 -19 -26 3 -18 13 -20 93 -23 69
-2 112 -10 183 -34 100 -34 132 -39 132 -19 0 6 -9 61 -20 121 -11 60 -20 111
-20 113 0 5 -15 3 -27 -5z"/>
<path d="M2055 2403 c-9 -59 -19 -112 -22 -119 -4 -11 25 -29 33 -21 2 2 11
44 20 93 9 49 18 91 20 93 2 2 32 -20 66 -48 62 -51 177 -114 231 -127 24 -5
27 -3 27 18 0 21 -7 27 -42 37 -67 20 -147 67 -218 126 -35 30 -71 55 -81 55
-13 0 -20 -21 -34 -107z"/>
<path d="M1596 2444 c-3 -9 -6 -27 -6 -40 0 -31 -7 -31 -184 1 -77 14 -146 25
-152 25 -24 0 -24 -38 1 -93 18 -42 30 -57 45 -57 20 0 20 1 4 38 -9 20 -18
42 -20 48 -3 7 40 3 123 -12 70 -13 136 -23 147 -24 16 0 18 -6 11 -55 -6 -50
-5 -55 13 -55 16 0 21 14 36 103 10 56 20 110 22 120 7 22 -31 24 -40 1z"/>
<path d="M17710 2406 c-106 -30 -140 -64 -140 -139 0 -42 5 -54 33 -82 44 -44
104 -54 205 -31 117 25 162 65 162 142 0 50 -26 93 -65 110 -41 17 -133 17
-195 0z m200 -56 c12 -12 20 -33 20 -54 0 -57 -56 -89 -182 -102 -96 -11 -138
11 -138 72 0 22 7 40 20 52 32 27 119 51 193 51 54 1 71 -3 87 -19z"/>
<path d="M18527 2389 c-55 -13 -115 -46 -133 -74 -38 -59 -13 -144 53 -176 38
-18 55 -21 112 -15 89 8 155 31 191 68 24 24 30 38 30 74 0 59 -23 102 -65
120 -38 15 -129 17 -188 3z m193 -59 c12 -12 20 -33 20 -54 0 -60 -61 -92
-195 -103 -62 -5 -73 -3 -97 17 -36 28 -38 77 -5 108 51 48 239 70 277 32z"/>
<path d="M2356 2135 c-3 -9 -6 -28 -6 -41 0 -31 -7 -31 -184 1 -77 14 -146 25
-152 25 -24 0 -24 -38 1 -93 18 -42 30 -57 45 -57 20 0 20 1 4 38 -9 20 -18
42 -21 48 -3 8 41 4 129 -12 73 -13 139 -24 146 -24 10 0 13 -14 10 -52 -2
-42 0 -53 13 -56 13 -2 19 17 33 100 10 57 18 110 19 118 3 20 -29 24 -37 5z"/>
<path d="M2540 1697 c0 -9 439 -51 1818 -171 999 -87 1838 -161 1865 -164 39
-4 47 -2 47 12 0 9 -8 16 -19 16 -10 0 -841 72 -1847 160 -1006 88 -1837 160
-1846 160 -10 0 -18 -6 -18 -13z"/>
<path d="M15575 1550 c-984 -88 -1805 -159 -1822 -159 -24 -1 -33 -6 -33 -17
0 -14 8 -16 53 -11 28 3 868 77 1865 164 1375 119 1812 161 1812 170 0 9 -14
13 -42 12 -24 -1 -848 -72 -1833 -159z"/>
<path d="M18480 1365 c0 -118 1 -125 20 -125 17 0 20 7 20 50 l0 50 170 0
c168 0 170 0 170 22 0 32 -59 118 -81 118 -25 0 -24 -9 6 -50 14 -19 25 -35
25 -37 0 -2 -65 -3 -145 -3 l-145 0 0 50 c0 43 -3 50 -20 50 -19 0 -20 -7 -20
-125z"/>
<path d="M2015 1465 c-61 -22 -85 -55 -85 -121 0 -47 4 -60 28 -84 66 -66 256
-65 322 2 26 26 30 37 30 85 0 47 -4 59 -28 83 -16 15 -46 33 -68 39 -54 15
-151 13 -199 -4z m228 -58 c47 -31 38 -106 -16 -129 -18 -7 -66 -13 -107 -13
-89 0 -135 17 -148 53 -14 42 0 75 38 95 46 24 194 20 233 -6z"/>
<path d="M9980 1247 l0 -103 -31 -11 c-19 -8 -34 -23 -42 -42 l-11 -31 -98 0
c-80 0 -98 -3 -98 -15 0 -12 18 -15 98 -15 96 0 99 -1 110 -25 7 -14 25 -34
42 -43 l30 -17 0 -97 c0 -80 3 -98 15 -98 12 0 15 18 15 98 l1 97 32 20 c18
11 36 30 42 43 9 21 16 22 107 22 80 0 98 3 98 15 0 12 -18 15 -98 15 l-98 0
-11 31 c-8 19 -23 34 -42 42 l-31 11 0 103 c0 85 -3 103 -15 103 -12 0 -15
-18 -15 -103z m58 -144 c52 -44 24 -123 -43 -123 -43 0 -79 41 -70 80 7 32 40
60 70 60 13 0 32 -8 43 -17z"/>
<path d="M18553 1188 c-51 -13 -73 -50 -73 -124 0 -55 4 -68 28 -94 19 -23 39
-33 70 -37 39 -5 45 -3 74 28 l32 34 27 -27 c37 -38 81 -37 120 1 25 26 29 37
29 86 0 31 -7 69 -15 85 -28 54 -116 61 -147 11 -12 -20 -13 -20 -33 4 -25 31
-70 44 -112 33z m89 -65 c23 -21 25 -95 2 -117 -36 -37 -105 -27 -125 18 -15
31 -3 92 19 105 27 16 84 13 104 -6z m165 -9 c21 -21 24 -32 19 -62 -9 -61
-65 -83 -106 -42 -38 38 -21 104 30 123 26 9 30 8 57 -19z"/>
<path d="M1204 1161 c-56 -25 -74 -54 -74 -117 0 -67 24 -99 92 -119 95 -28
207 -13 258 35 27 25 30 35 30 85 0 49 -4 60 -28 85 -16 15 -46 33 -68 39 -62
17 -163 13 -210 -8z m208 -41 c21 -6 42 -19 48 -30 15 -28 12 -76 -5 -94 -47
-47 -223 -47 -270 1 -11 10 -15 29 -13 57 3 36 8 43 38 58 40 20 143 24 202 8z"/>
<path d="M17783 1168 c-25 -5 -55 -22 -73 -39 -26 -27 -30 -38 -30 -86 0 -47
4 -59 28 -83 34 -33 87 -50 162 -50 75 0 128 17 162 50 24 25 28 36 28 85 0
49 -4 60 -28 85 -44 44 -151 60 -249 38z m199 -58 c56 -26 55 -103 -2 -133
-28 -15 -52 -17 -121 -15 -123 6 -160 36 -136 111 5 15 10 27 10 27 1 0 20 7
42 15 47 18 165 15 207 -5z"/>
<path d="M2163 1150 c-12 -5 -29 -20 -38 -33 l-16 -25 -30 30 c-26 26 -35 30
-67 25 -56 -9 -82 -45 -82 -113 0 -30 7 -68 15 -83 26 -52 109 -61 143 -16
l17 22 26 -28 c36 -39 104 -41 146 -5 24 21 28 32 31 93 4 66 2 72 -24 102
-31 34 -83 48 -121 31z m101 -72 c22 -28 16 -96 -10 -115 -25 -18 -84 -16
-106 4 -21 19 -25 91 -5 115 27 35 90 32 121 -4z m-194 2 c30 -30 27 -83 -6
-109 -34 -27 -50 -26 -79 4 -46 45 -21 125 40 125 14 0 34 -9 45 -20z"/>
<path d="M18583 878 c-23 -5 -56 -22 -72 -37 -28 -26 -31 -35 -31 -86 0 -49 4
-60 28 -85 73 -73 282 -66 336 11 10 15 16 44 16 77 0 45 -4 58 -28 82 -44 44
-151 60 -249 38z m169 -48 c54 -15 70 -35 66 -84 -4 -60 -44 -78 -159 -74
-109 5 -139 21 -139 76 0 20 4 43 9 50 22 35 147 53 223 32z"/>
<path d="M2270 800 l0 -50 -170 0 c-168 0 -170 0 -170 -22 0 -32 59 -118 81
-118 25 0 24 9 -6 50 -14 19 -25 35 -25 37 0 2 65 3 145 3 l145 0 0 -50 c0
-43 3 -50 20 -50 19 0 20 7 20 125 0 118 -1 125 -20 125 -17 0 -20 -7 -20 -50z"/>
</g>
</svg>
